<svg width="89" height="88" viewBox="0 0 89 88" fill="none" xmlns="http://www.w3.org/2000/svg">
<path d="M0 44C0 19.6995 19.9481 0 44.2486 0C68.8253 0 89 19.9233 89 44.5V88H44C19.6995 88 0 68.3005 0 44Z" fill="#222222"/>
<path d="M24.1806 39.5C19.9206 39.5 16.8406 36.32 16.8406 31.96C16.8406 27.58 19.8806 24.4 24.0806 24.4C26.8806 24.4 29.3606 26.18 30.2006 28.66L28.6606 29.16C28.0006 27.24 26.1606 25.88 24.0606 25.88C20.8206 25.88 18.5006 28.4 18.5006 31.96C18.5006 35.46 20.9406 38.02 24.3206 38.02C27.4206 38.02 29.8806 35.74 29.8806 32.7H22.0406V31.22H31.5806V39H30.1806L30.0206 36.28H30.0006C28.7806 38.28 26.7006 39.5 24.1806 39.5ZM38.5511 39.4C35.3311 39.4 32.9711 37.06 32.9711 33.84C32.9711 30.74 35.1311 28.5 38.1311 28.5C41.0911 28.5 43.0311 30.74 43.0711 33.86C43.0711 34.04 43.0711 34.26 43.0511 34.46H34.5511C34.7711 36.56 36.3911 38.02 38.5711 38.02C40.1511 38.02 41.4911 37.2 42.0511 36.1L43.3711 36.64C42.7111 38.26 40.8111 39.4 38.5511 39.4ZM34.5711 33.12H41.4511C41.2511 31.06 39.9511 29.9 38.1111 29.9C36.2311 29.9 34.8511 31.2 34.5711 33.12ZM48.8648 39.4C46.9648 39.4 45.6848 38.12 45.6848 36.28V30.16H43.4648V28.9H45.6848V25.9L47.2048 25.54V28.9H51.7248V30.16H47.2048V36.12C47.2048 37.26 47.9048 38.08 49.0048 38.08C50.0248 38.08 50.9648 37.34 51.1648 36.04L52.4048 36.56C52.1248 38.32 50.5848 39.4 48.8648 39.4ZM59.8575 26.94C59.1775 26.94 58.7375 26.5 58.7375 25.82C58.7375 25.16 59.1775 24.72 59.8575 24.72C60.5175 24.72 60.9975 25.16 60.9975 25.82C60.9975 26.5 60.5175 26.94 59.8575 26.94ZM59.0775 39V28.9H60.5975V39H59.0775ZM68.2247 28.5C70.5447 28.5 71.9647 29.98 71.9647 32.48V39H70.4247V32.64C70.4247 30.92 69.4047 29.82 67.8047 29.82C65.7847 29.82 64.3247 31.24 64.3247 33.3V39H62.8047V28.9H64.1847L64.3247 30.4H64.3447C65.2047 29.18 66.4647 28.5 68.2247 28.5ZM22.6148 59.4C20.7148 59.4 19.4348 58.12 19.4348 56.28V50.16H17.2148V48.9H19.4348V45.9L20.9548 45.54V48.9H25.4748V50.16H20.9548V56.12C20.9548 57.26 21.6548 58.08 22.7548 58.08C23.7748 58.08 24.7148 57.34 24.9148 56.04L26.1548 56.56C25.8748 58.32 24.3348 59.4 22.6148 59.4ZM32.2183 59.4C28.9783 59.4 26.8383 57.24 26.8383 53.96C26.8383 50.66 28.9783 48.5 32.2183 48.5C35.4783 48.5 37.6183 50.66 37.6183 53.96C37.6183 57.24 35.4783 59.4 32.2183 59.4ZM32.2183 58.02C34.5583 58.02 36.0783 56.42 36.0783 53.96C36.0783 51.5 34.5583 49.9 32.2183 49.9C29.8783 49.9 28.3583 51.5 28.3583 53.96C28.3583 56.42 29.8783 58.02 32.2183 58.02ZM42.8509 59.4C40.5309 59.4 39.1109 57.92 39.1109 55.42V48.9H40.6509V55.26C40.6509 56.98 41.6709 58.08 43.2709 58.08C45.2909 58.08 46.7509 56.66 46.7509 54.6V48.9H48.2709V59H46.8909L46.7509 57.5H46.7309C45.8709 58.72 44.6109 59.4 42.8509 59.4ZM55.2056 59.4C52.0656 59.4 49.8656 57.14 49.8656 53.96C49.8656 50.76 51.9456 48.5 54.9056 48.5C57.1856 48.5 59.0456 49.92 59.5456 51.96L58.0656 52.3C57.6656 50.84 56.3856 49.9 54.9056 49.9C52.8856 49.9 51.3856 51.54 51.3856 53.96C51.3856 56.38 53.0056 58.02 55.2056 58.02C57.0456 58.02 58.5656 56.84 58.8456 55.1L60.3256 55.4C59.9456 57.72 57.8056 59.4 55.2056 59.4ZM61.7305 59V44.3H63.2505V50.4H63.2705C64.1305 49.18 65.3905 48.5 67.1505 48.5C69.4705 48.5 70.8905 49.98 70.8905 52.48V59H69.3505V52.64C69.3505 50.92 68.3305 49.82 66.7305 49.82C64.7105 49.82 63.2505 51.24 63.2505 53.3V59H61.7305Z" fill="white"/>
</svg>
