<svg width="88" height="88" viewBox="0 0 88 88" fill="none" xmlns="http://www.w3.org/2000/svg">
<path d="M45.9877 23.326L65.1327 41.7493C65.5667 42.1693 66.1406 42.4052 66.7426 42.4052C67.3446 42.4052 67.9257 42.1693 68.3527 41.7493L73.3926 36.71C73.8126 36.2795 74.0507 35.7013 74.0507 35.0993C74.0507 34.4973 73.8126 33.9191 73.3926 33.4879L54.9546 14.4598C54.7446 14.2421 54.4927 14.0685 54.2127 13.9488C53.9327 13.8291 53.6317 13.7661 53.3307 13.7619C53.0227 13.7584 52.7217 13.8151 52.4417 13.9278C52.1617 14.0412 51.9026 14.2085 51.6856 14.4206L45.9316 20.0654C45.5116 20.505 45.2737 21.0951 45.2877 21.7069C45.2947 22.318 45.5467 22.9004 45.9877 23.326Z" fill="#191A1B"/>
<path d="M56.8105 17.0436L71.6295 1.50707C72.0845 1.03107 72.6305 0.651682 73.2325 0.392682C73.8345 0.133682 74.4855 0 75.1435 0C75.8015 0 76.4525 0.133682 77.0545 0.392682C77.6635 0.651682 78.2095 1.03107 78.6575 1.50707L86.1195 9.41428C87.0015 10.3453 87.4706 11.5857 87.4426 12.8653C87.4076 14.1442 86.8685 15.3587 85.9445 16.2442L70.3976 31.1234L56.8105 17.0436Z" fill="#191A1B"/>
<mask id="mask0_425_19681" style="mask-type:alpha" maskUnits="userSpaceOnUse" x="0" y="25" width="63" height="63">
<path d="M3.01555 84.6323L3.60353 85.2189C4.18453 85.7964 4.94049 86.1555 5.75249 86.236C6.56449 86.3158 7.38352 86.1114 8.06252 85.6571L11.8285 83.144L18.2755 80.5667C19.1155 80.2321 19.8785 79.7323 20.5156 79.0974L61.7525 38.1663L49.8245 26.2383L8.76252 68.6387C8.06252 69.3898 7.55151 70.2914 7.25751 71.2742L5.6755 76.1392L2.72853 80.006C2.21053 80.6822 1.95151 81.5229 2.00751 82.3734C2.05651 83.2239 2.42055 84.0261 3.01555 84.6323Z" fill="white" stroke="#191A1B" stroke-width="2.1" stroke-linecap="round" stroke-linejoin="round"/>
</mask>
<g mask="url(#mask0_425_19681)">
<path d="M55 60.5C39.8 61.7 17.6667 54.6667 8.5 51L-17.5 69L-7 111L46.5 94L55 60.5Z" fill="#BFE0FF"/>
</g>
<path d="M3.01555 84.6323L3.60353 85.2189C4.18453 85.7964 4.94049 86.1555 5.75249 86.236C6.56449 86.3158 7.38352 86.1114 8.06252 85.6571L11.8285 83.144L18.2755 80.5667C19.1155 80.2321 19.8786 79.7323 20.5156 79.0974L61.7525 38.1663L49.8245 26.2383L8.76252 68.6387C8.06252 69.3898 7.55151 70.2914 7.25751 71.2742L5.6755 76.1392L2.72853 80.006C2.21053 80.6822 1.95151 81.5229 2.00751 82.3734C2.05651 83.2239 2.42055 84.0261 3.01555 84.6323Z" stroke="#191A1B" stroke-width="2.1" stroke-linecap="round" stroke-linejoin="round"/>
</svg>
