<svg width="168" height="158" viewBox="0 0 168 158" fill="none" xmlns="http://www.w3.org/2000/svg">
<path d="M40.5405 135.557L23.7724 108.771C21.3572 104.964 20.0766 100.555 20.0647 96.0481C20.0653 91.5441 21.3319 87.127 23.7338 83.3073C23.7733 83.2504 23.8128 83.1934 23.8551 83.124C30.3066 73.1664 37.9919 71.9798 44.3773 63.8864C47.8049 59.564 51.3559 52.6124 51.8737 41.1581C51.8953 40.4047 52.0806 39.6559 52.4077 38.9794C52.7348 38.3028 53.1987 37.6908 53.7725 37.2029C54.3541 36.7102 55.0253 36.3436 55.7525 36.135C56.4749 35.9187 57.236 35.8497 57.9846 35.9494C59.586 36.2122 61.0836 36.9259 62.2983 38.0099C63.5081 39.0861 64.3984 40.4911 64.8427 42.0572C66.505 46.6997 66.868 51.7159 65.8994 56.5577C65.1371 60.2732 63.5885 63.7945 61.3643 66.8704L120.098 30.103C124.543 27.3204 130.787 28.473 133.662 32.8602C134.37 33.9397 134.85 35.1513 135.086 36.419C135.314 37.6915 135.296 38.9998 135.013 40.2602C134.738 41.5157 134.211 42.7136 133.467 43.769C132.724 44.8245 131.78 45.7153 130.686 46.4001C120.997 52.6587 111.32 58.9201 101.636 65.1863C101.942 65.2304 107.545 66.2158 109.759 71.5852C111.973 76.9546 108.616 81.7153 108.445 81.9399C110.369 82.5802 112.086 83.7138 113.429 85.2427C114.768 86.764 115.673 88.6208 116.044 90.6186C117.178 96.7287 112.685 100.892 112.429 101.117C114.006 101.545 115.472 102.311 116.728 103.358C117.984 104.406 118.995 105.713 119.692 107.186C119.818 107.439 119.929 107.702 120.028 107.962C120.678 109.839 120.672 111.869 120.011 113.741C119.357 115.609 118.076 117.194 116.404 118.24C113.159 120.336 109.131 122.911 104.52 125.84C84.0792 138.819 80.5401 140.616 77.9176 141.84C74.8377 143.274 71.6766 144.546 68.4481 145.623C63.3432 147.317 57.8122 147.252 52.753 145.422C47.6861 143.597 43.3877 140.123 40.5405 135.557Z" fill="#FF6A1D" stroke="#191A1B" stroke-width="2.1" stroke-linecap="round" stroke-linejoin="round"/>
<path d="M101.671 65.2285L79.7305 78.9633" stroke="#191A1B" stroke-width="2.1" stroke-linecap="round" stroke-linejoin="round"/>
<path d="M108.482 81.9829L84.9778 96.6966" stroke="#191A1B" stroke-width="2.1" stroke-linecap="round" stroke-linejoin="round"/>
<path d="M112.47 101.166L91.3079 114.414" stroke="#191A1B" stroke-width="2.1" stroke-linecap="round" stroke-linejoin="round"/>
</svg>
