<svg width="32" height="32" viewBox="0 0 32 32" fill="none" xmlns="http://www.w3.org/2000/svg">
<g id="2">
<path id="Vector" d="M27.3537 16.4634L18.3537 25.4634C18.2599 25.5572 18.1327 25.6099 18 25.6099C17.8673 25.6099 17.7401 25.5572 17.6462 25.4634C17.5524 25.3696 17.4997 25.2423 17.4997 25.1097C17.4997 24.977 17.5524 24.8497 17.6462 24.7559L25.7925 16.6097H5C4.86739 16.6097 4.74021 16.557 4.64645 16.4632C4.55268 16.3694 4.5 16.2423 4.5 16.1097C4.5 15.977 4.55268 15.8499 4.64645 15.7561C4.74021 15.6623 4.86739 15.6097 5 15.6097H25.7925L17.6462 7.4634C17.5524 7.36958 17.4997 7.24233 17.4997 7.10965C17.4997 6.97697 17.5524 6.84972 17.6462 6.7559C17.7401 6.66208 17.8673 6.60938 18 6.60938C18.1327 6.60937 18.2599 6.66208 18.3537 6.7559L27.3537 15.7559C27.4002 15.8023 27.4371 15.8575 27.4623 15.9182C27.4874 15.9789 27.5004 16.0439 27.5004 16.1097C27.5004 16.1754 27.4874 16.2404 27.4623 16.3011C27.4371 16.3618 27.4002 16.417 27.3537 16.4634Z" fill="#FFF9E5"/>
</g>
</svg>
