<svg width="155" height="156" viewBox="0 0 155 156" fill="none" xmlns="http://www.w3.org/2000/svg">
<path d="M39.3872 72.2425L41.0095 72.0034L39.5297 71.2967L6.73118 55.6329L42.6542 61.1673L44.275 61.417L43.0692 60.3055L16.3447 35.6702L49.0405 51.5469L50.5157 52.2632L49.6911 50.8457L31.4153 19.4281L57.9787 44.2366L59.1772 45.3559L58.8071 43.7583L50.6038 8.34945L68.6747 39.8856L69.49 41.3085L69.6072 39.6727L72.205 3.41946L80.1775 38.8809L80.5372 40.4809L81.1314 38.9524L94.3001 5.07496L91.4663 41.311L91.3384 42.9459L92.3567 41.6605L114.926 13.17L101.537 46.9604L100.933 48.485L102.285 47.5568L132.249 26.9846L109.494 55.3276L108.468 56.6063L110.033 56.1179L144.73 45.2915L114.632 65.6683L113.274 66.5877L114.914 66.5823L151.261 66.4638L116.494 77.0641L114.926 77.5424L116.494 78.0207L151.261 88.621L114.914 88.5025L113.274 88.4971L114.632 89.4165L144.73 109.793L110.033 98.9669L108.468 98.4784L109.494 99.7572L132.249 128.1L102.285 107.528L100.933 106.6L101.537 108.124L114.926 141.915L92.3567 113.424L91.3384 112.139L91.4663 113.774L94.3001 150.01L81.1314 116.133L80.5372 114.604L80.1775 116.204L72.205 151.666L69.6072 115.412L69.49 113.776L68.6747 115.199L50.6038 146.735L58.8071 111.326L59.1772 109.729L57.9787 110.848L31.4153 135.657L49.6911 104.239L50.5157 102.822L49.0405 103.538L16.3447 119.415L43.0692 94.7793L44.275 93.6678L42.6542 93.9175L6.73118 99.4519L39.5297 83.7882L41.0095 83.0814L39.3872 82.8423L3.42901 77.5424L39.3872 72.2425Z" fill="#B1A5F8" stroke="#222222"/>
</svg>
