<svg width="24" height="25" viewBox="0 0 24 25" fill="none" xmlns="http://www.w3.org/2000/svg">
<g id="2">
<path id="Vector" d="M20.5153 12.7655L13.7653 19.5155C13.6949 19.5859 13.5995 19.6254 13.5 19.6254C13.4005 19.6254 13.3051 19.5859 13.2347 19.5155C13.1643 19.4452 13.1248 19.3497 13.1248 19.2502C13.1248 19.1507 13.1643 19.0553 13.2347 18.9849L19.3444 12.8752H3.75C3.65054 12.8752 3.55516 12.8357 3.48484 12.7654C3.41451 12.695 3.375 12.5997 3.375 12.5002C3.375 12.4008 3.41451 12.3054 3.48484 12.235C3.55516 12.1647 3.65054 12.1252 3.75 12.1252H19.3444L13.2347 6.01552C13.1643 5.94516 13.1248 5.84972 13.1248 5.75021C13.1248 5.6507 13.1643 5.55526 13.2347 5.4849C13.3051 5.41453 13.4005 5.375 13.5 5.375C13.5995 5.375 13.6949 5.41453 13.7653 5.4849L20.5153 12.2349C20.5502 12.2697 20.5778 12.3111 20.5967 12.3566C20.6156 12.4021 20.6253 12.4509 20.6253 12.5002C20.6253 12.5495 20.6156 12.5983 20.5967 12.6438C20.5778 12.6893 20.5502 12.7307 20.5153 12.7655Z" fill="#222222"/>
</g>
</svg>
