<svg width="56" height="56" viewBox="0 0 56 56" fill="none" xmlns="http://www.w3.org/2000/svg">
<rect width="56" height="56" fill="#222222"/>
<path d="M14.8441 23.076C14.0761 23.076 13.5481 22.564 13.5481 21.796C13.5481 21.06 14.0761 20.532 14.8441 20.532C15.6121 20.532 16.1561 21.06 16.1561 21.796C16.1561 22.564 15.6121 23.076 14.8441 23.076ZM13.2921 36.132C12.7481 36.132 12.2041 36.052 11.7561 35.86L12.0281 34.292C12.2841 34.42 12.5881 34.452 12.8121 34.452C13.4361 34.452 13.8041 34.052 13.8041 33.348V24.34H15.9001V33.556C15.9001 35.172 14.9081 36.132 13.2921 36.132ZM20.2183 32.724C18.6983 32.724 17.7703 31.748 17.7703 30.084V24.34H19.8503V29.684C19.8503 30.516 20.3143 31.012 21.0663 31.012C22.0743 31.012 22.7303 30.308 22.7303 29.188V24.34H24.8263V32.5H23.0663L22.7943 31.268H22.7783C22.2663 32.196 21.3543 32.724 20.2183 32.724ZM28.8704 32.692C27.3184 32.692 26.2304 31.796 26.2304 30.356C26.2304 28.9 27.3664 27.892 29.4944 27.668L30.7904 27.524C31.1744 27.492 31.4624 27.236 31.4624 26.788C31.4624 26.1 30.8544 25.668 30.0384 25.668C29.0464 25.668 28.4064 26.42 28.3744 27.284L26.4544 26.836C26.5184 25.284 27.9424 24.068 30.0544 24.068C32.1664 24.068 33.4944 25.284 33.4944 27.108V32.5H31.6384L31.4144 31.364H31.3984C30.8864 32.212 29.9904 32.692 28.8704 32.692ZM29.6384 31.108C30.6624 31.108 31.4144 30.34 31.4144 29.204V28.788L29.9744 28.948C28.8384 29.076 28.3264 29.54 28.3264 30.148C28.3264 30.756 28.8704 31.108 29.6384 31.108ZM39.8638 24.116C41.3838 24.116 42.3118 25.092 42.3118 26.756V32.5H40.2318V27.156C40.2318 26.324 39.7678 25.828 39.0158 25.828C38.0078 25.828 37.3518 26.532 37.3518 27.652V32.5H35.2558V24.34H37.0158L37.2878 25.572H37.3038C37.8158 24.644 38.7278 24.116 39.8638 24.116Z" fill="white"/>
</svg>
